<svg width="13" height="18" viewBox="0 0 13 18" fill="none" xmlns="http://www.w3.org/2000/svg">
<path d="M12.6105 12.2716C12.6105 13.0901 12.419 13.7955 12.0358 14.3876C11.6701 14.9623 11.0605 15.4935 10.2072 15.9812C9.63243 16.3295 8.96191 16.5907 8.19561 16.7649C7.42931 16.939 6.6543 17.0261 5.87058 17.0261C5.06945 17.0261 4.07674 16.7649 2.89246 16.2424C2.03908 15.8244 1.35986 15.3281 0.854797 14.7533C0.36715 14.1786 0.123327 13.5516 0.123327 12.8724C0.123327 12.4022 0.227823 12.0626 0.436814 11.8536C0.645805 11.6272 0.985416 11.514 1.45565 11.514C1.69947 11.514 1.952 11.6185 2.21324 11.8275C2.47448 12.019 2.63122 12.2106 2.68347 12.4022C2.92729 13.1162 3.35398 13.6648 3.96354 14.048C4.5731 14.4137 5.33069 14.5966 6.23632 14.5966C7.28127 14.5966 8.15207 14.405 8.84871 14.0219C9.56276 13.6387 9.91979 13.125 9.91979 12.4806C9.91979 11.8536 9.53664 11.2963 8.77034 10.8086C8.00404 10.321 7.22032 9.98138 6.41919 9.7898C5.26973 9.47632 4.2509 9.10188 3.36269 8.66648C2.43965 8.21366 1.75172 7.65635 1.2989 6.99455C0.846089 6.33274 0.619681 5.63611 0.619681 4.90464C0.619681 4.22542 0.854797 3.53749 1.32503 2.84085C1.79526 2.1268 2.35257 1.61303 2.99696 1.29954C3.34527 1.12538 3.93742 0.942513 4.77338 0.750937C5.62676 0.541947 6.24503 0.437451 6.62818 0.437451C7.13324 0.437451 7.69055 0.498407 8.30011 0.620318C8.90966 0.74223 9.40602 0.916389 9.78917 1.1428C10.5555 1.57819 11.1215 1.97005 11.4872 2.31837C11.853 2.66669 12.0358 3.10209 12.0358 3.62457C12.0358 3.93805 11.9139 4.21671 11.6701 4.46053C11.4437 4.70435 11.0431 4.82626 10.4684 4.82626C10.3291 4.82626 10.1897 4.76531 10.0504 4.6434C9.91108 4.52149 9.73692 4.33862 9.52793 4.0948C9.24927 3.72906 8.97933 3.48524 8.71809 3.36333C8.45685 3.27625 8.0737 3.18046 7.56864 3.07596C7.08099 2.97147 6.64559 2.91922 6.26244 2.91922C5.84446 2.91922 5.40906 3.0063 4.95625 3.18046C4.50343 3.35462 4.12028 3.60715 3.8068 3.93805C3.51073 4.25154 3.36269 4.61727 3.36269 5.03526C3.36269 5.38357 3.51943 5.68835 3.83292 5.94959C4.16382 6.19342 4.55568 6.3937 5.0085 6.55044C5.53097 6.75943 6.09699 6.9423 6.70655 7.09904C7.50768 7.34287 8.16078 7.56927 8.66584 7.77827C9.18832 7.96984 9.69338 8.21366 10.181 8.50973C11.0344 9.0148 11.6527 9.53727 12.0358 10.0772C12.419 10.5996 12.6105 11.3311 12.6105 12.2716Z" fill="url(#paint0_linear_101_352)"/>
<defs>
<linearGradient id="paint0_linear_101_352" x1="40" y1="-12" x2="40" y2="27.1858" gradientUnits="userSpaceOnUse">
<stop stop-color="#C7CAFE"/>
<stop offset="1" stop-color="#3D408F"/>
</linearGradient>
</defs>
</svg>
