<svg width="16" height="16" fill="none" xmlns="http://www.w3.org/2000/svg"><path d="M6.464 8.908c.044.26.124.492.24.696.116.204.276.368.472.492.188.116.424.18.716.184a1.34 1.34 0 00.52-.104c.164-.072.3-.168.416-.288.116-.12.204-.264.268-.424.064-.16.1-.332.108-.512h1.432c-.012.376-.088.72-.22 1.032-.132.312-.324.58-.564.808-.24.228-.528.4-.864.524a3.202 3.202 0 01-1.116.188c-.52 0-.972-.088-1.356-.268a2.704 2.704 0 01-.96-.736 3.094 3.094 0 01-.572-1.084A4.515 4.515 0 014.8 8.108v-.22c0-.464.064-.9.188-1.312.124-.412.316-.772.572-1.08a2.72 2.72 0 01.964-.732c.388-.18.84-.268 1.36-.268.376 0 .728.06 1.056.184.328.124.616.292.864.508.248.216.448.464.592.752.144.288.228.592.24.92H9.204a1.14 1.14 0 00-.408-.828c-.12-.1-.26-.18-.42-.236a1.48 1.48 0 00-.484-.08c-.288.008-.524.068-.716.188-.2.128-.36.292-.476.496a2.099 2.099 0 00-.24.7 4.72 4.72 0 00-.06.788v.22c0 .272.02.54.064.8z" fill="#8F91D0"/><path d="M8 16c-4.42 0-8-3.58-8-8s3.58-8 8-8 8 3.58 8 8-3.58 8-8 8zM8 1.6A6.408 6.408 0 001.6 8c0 3.528 2.872 6.4 6.4 6.4 3.528 0 6.4-2.872 6.4-6.4 0-3.528-2.872-6.4-6.4-6.4z" fill="#8F91D0"/></svg>