<svg width="13" height="18" fill="none" xmlns="http://www.w3.org/2000/svg"><path d="M12.61 12.272c0 .818-.191 1.524-.574 2.116-.366.574-.976 1.105-1.829 1.593-.575.348-1.245.61-2.011.784-.767.174-1.542.261-2.325.261-.802 0-1.794-.261-2.979-.784-.853-.418-1.532-.914-2.037-1.489-.488-.574-.732-1.201-.732-1.88 0-.47.105-.81.314-1.02.209-.226.548-.339 1.019-.339.243 0 .496.104.757.314.261.191.418.383.47.574.244.714.671 1.263 1.28 1.646.61.366 1.368.549 2.273.549 1.045 0 1.916-.192 2.613-.575.714-.383 1.07-.897 1.07-1.541 0-.627-.382-1.185-1.149-1.672a7.716 7.716 0 00-2.35-1.02c-1.15-.313-2.17-.687-3.057-1.123-.923-.452-1.611-1.01-2.064-1.671-.453-.662-.68-1.359-.68-2.09 0-.68.236-1.368.706-2.064.47-.714 1.028-1.228 1.672-1.541.348-.175.94-.357 1.776-.55C5.627.543 6.245.438 6.628.438c.505 0 1.063.061 1.672.183.61.122 1.106.296 1.49.523.766.435 1.332.827 1.697 1.175.366.349.549.784.549 1.307 0 .313-.122.592-.366.836-.226.243-.627.365-1.202.365-.139 0-.278-.06-.418-.183a5.593 5.593 0 01-.522-.548c-.279-.366-.549-.61-.81-.732a10.83 10.83 0 00-1.15-.287 6.309 6.309 0 00-1.306-.157c-.418 0-.853.087-1.306.261a3.082 3.082 0 00-1.15.758c-.295.314-.443.68-.443 1.097 0 .349.156.653.47.915.33.243.723.444 1.175.6a13.88 13.88 0 001.699.549c.8.244 1.454.47 1.959.68a8.656 8.656 0 011.515.73c.853.506 1.472 1.028 1.855 1.568.383.523.575 1.254.575 2.195z" fill="url(#paint0_linear_101_352)"/><defs><linearGradient id="paint0_linear_101_352" x1="40" y1="-12" x2="40" y2="27.186" gradientUnits="userSpaceOnUse"><stop stop-color="#C7CAFE"/><stop offset="1" stop-color="#3D408F"/></linearGradient></defs></svg>