<?xml version="1.0" encoding="utf-8"?><svg viewBox="0 0 45 46" xmlns="http://www.w3.org/2000/svg" xmlns:xlink="http://www.w3.org/1999/xlink"><style>:root>svg{display:none}:root>svg:target{display:block}</style><svg viewBox="0 0 6 5" id="arrow-down" xmlns="http://www.w3.org/2000/svg"><path d="M3 5L5.598.5H.402L3 5z"/></svg><svg viewBox="0 0 20 10" id="arrow-right" xmlns="http://www.w3.org/2000/svg"><path d="M1 5h18m-4-4l4 4-4 4" stroke="#D1D1D7" stroke-width="1.5" stroke-linecap="round" stroke-linejoin="round"/></svg><svg viewBox="0 0 45 46" id="play" xmlns="http://www.w3.org/2000/svg"><path d="M42.278 21.435a1.706 1.706 0 010 2.955l-28.15 16.252c-1.137.657-2.56-.164-2.56-1.477V6.66c0-1.313 1.423-2.134 2.56-1.477l28.15 16.252z"/></svg><svg viewBox="0 0 24 24" id="search" xmlns="http://www.w3.org/2000/svg"><path d="M11 19a8 8 0 100-16 8 8 0 000 16zm10 2l-4.35-4.35" stroke="#9A9CCB" stroke-width="3" stroke-linecap="round" stroke-linejoin="round"/></svg><svg viewBox="0 0 25 24" id="volume" xmlns="http://www.w3.org/2000/svg"><path d="M11.68 5.12L6.791 9.03h-3.91v5.864h3.91l4.887 3.91V5.118zm7.887-.07a9.774 9.774 0 010 13.821m-3.45-10.37a4.887 4.887 0 010 6.91" stroke="#BFBFC7" stroke-width="1.955" stroke-linecap="round" stroke-linejoin="round"/></svg><svg viewBox="0 0 25 24" id="zoom" xmlns="http://www.w3.org/2000/svg"><path d="M15.505 3.164h5.865V9.03M9.64 20.758H3.777v-5.865" stroke="#BFBFC7" stroke-width="1.955" stroke-linecap="round" stroke-linejoin="round"/></svg></svg>