<?xml version="1.0" encoding="utf-8"?><svg viewBox="0 0 45 46" xmlns="http://www.w3.org/2000/svg" xmlns:xlink="http://www.w3.org/1999/xlink"><style>:root>svg{display:none}:root>svg:target{display:block}</style><svg viewBox="0 0 6 5" id="arrow-down" xmlns="http://www.w3.org/2000/svg"><path d="M3 5L5.598.5H.402L3 5z"/></svg><svg viewBox="0 0 20 10" id="arrow-right" xmlns="http://www.w3.org/2000/svg"><path d="M1 5h18m-4-4l4 4-4 4" stroke="#D1D1D7" stroke-width="1.5" stroke-linecap="round" stroke-linejoin="round"/></svg><svg viewBox="0 0 30 30" id="facebook" xmlns="http://www.w3.org/2000/svg"><g clip-path="url(#ca)"><path d="M19.997 4.981h2.739V.211C22.263.146 20.638 0 18.746 0c-3.95 0-6.654 2.484-6.654 7.049v4.2H7.734v5.333h4.358V30h5.342V16.584h4.182l.663-5.333h-4.846V7.577c.001-1.541.416-2.596 2.564-2.596z"/></g><defs><clipPath id="ca"><path d="M0 0h30v30H0z"/></clipPath></defs></svg><svg viewBox="0 0 30 30" id="instagram" xmlns="http://www.w3.org/2000/svg"><path d="M20.625 0H9.375A9.376 9.376 0 000 9.375v11.25A9.376 9.376 0 009.375 30h11.25A9.376 9.376 0 0030 20.625V9.375A9.376 9.376 0 0020.625 0zm6.563 20.625a6.57 6.57 0 01-6.563 6.563H9.375a6.57 6.57 0 01-6.563-6.563V9.375a6.57 6.57 0 016.563-6.563h11.25a6.57 6.57 0 016.563 6.563v11.25z"/><path d="M15 7.5a7.5 7.5 0 10.001 15 7.5 7.5 0 000-15zm0 12.187A4.694 4.694 0 0110.313 15 4.693 4.693 0 0115 10.312 4.693 4.693 0 0119.688 15 4.694 4.694 0 0115 19.687zm8.063-11.75a1 1 0 100-1.998 1 1 0 000 1.998z"/></svg><svg viewBox="0 0 45 46" id="play" xmlns="http://www.w3.org/2000/svg"><path d="M42.278 21.435a1.706 1.706 0 010 2.955l-28.15 16.252c-1.137.657-2.56-.164-2.56-1.477V6.66c0-1.313 1.423-2.134 2.56-1.477l28.15 16.252z"/></svg><svg viewBox="0 0 24 24" id="search" xmlns="http://www.w3.org/2000/svg"><path d="M11 19a8 8 0 100-16 8 8 0 000 16zm10 2l-4.35-4.35" stroke="#9A9CCB" stroke-width="3" stroke-linecap="round" stroke-linejoin="round"/></svg><svg viewBox="0 0 30 30" id="twitter" xmlns="http://www.w3.org/2000/svg"><path d="M9.774 26.263c10.614 0 16.418-8.793 16.418-16.418 0-.25-.005-.499-.017-.746a11.742 11.742 0 002.879-2.988c-1.034.46-2.147.769-3.314.909a5.792 5.792 0 002.537-3.192 11.574 11.574 0 01-3.664 1.4 5.771 5.771 0 00-9.833 5.262A16.383 16.383 0 012.886 4.463a5.757 5.757 0 00-.781 2.9 5.766 5.766 0 002.567 4.803 5.727 5.727 0 01-2.613-.721v.073a5.772 5.772 0 004.629 5.657 5.792 5.792 0 01-2.606.099 5.777 5.777 0 005.39 4.008 11.577 11.577 0 01-7.167 2.47c-.465 0-.925-.027-1.376-.08a16.334 16.334 0 008.845 2.592"/></svg><svg viewBox="0 0 25 24" id="volume" xmlns="http://www.w3.org/2000/svg"><path d="M11.68 5.12L6.791 9.03h-3.91v5.864h3.91l4.887 3.91V5.118zm7.887-.07a9.774 9.774 0 010 13.821m-3.45-10.37a4.887 4.887 0 010 6.91" stroke="#BFBFC7" stroke-width="1.955" stroke-linecap="round" stroke-linejoin="round"/></svg><svg viewBox="0 0 25 24" id="zoom" xmlns="http://www.w3.org/2000/svg"><path d="M15.505 3.164h5.865V9.03M9.64 20.758H3.777v-5.865" stroke="#BFBFC7" stroke-width="1.955" stroke-linecap="round" stroke-linejoin="round"/></svg></svg>