<svg width="98" height="98" fill="none" xmlns="http://www.w3.org/2000/svg"><path d="M108-117L215-10 108 97S89.5 53.5 59 38 1-10 1-10l107-107z" fill="#F5453D"/><path d="M90.483-122l104.775 79.5-85.396 112.546S66.342 41.996 78.37 8.86C90.398-24.278 90.483-122 90.483-122z" fill="#F54F47"/><path d="M46.366 9.22C35.23 2.746 30 8.498 24.424 1.966c-8.104-9.495 1.62-17.36 2.968-31.826 6.985-5.768 21.142 1.455 26.935 8.47C67.5-12.68 57.5 15.691 46.366 9.22z" fill="#F65D55"/><path d="M48.422 14.411l1.331.853 1.59-2.483 1.407.9c1.698 1.088 3.262.653 4.167-.761.9-1.403.658-3.01-1.032-4.093L53.13 7.062l-4.707 7.349zm3.623-2.725l1.703-2.659 1.22.782c.998.639 1.094 1.46.593 2.242-.501.782-1.299 1.056-2.289.421l-1.227-.786zm5.079 8.45c1.614 1.035 3.37.555 4.461-1.15 1.094-1.707.799-3.506-.816-4.54-1.615-1.034-3.372-.55-4.466 1.157-1.092 1.705-.794 3.5.82 4.534zm.673-1.035c-.893-.572-.82-1.65-.175-2.658.646-1.008 1.601-1.535 2.495-.963.879.564.8 1.651.154 2.66-.646 1.008-1.595 1.524-2.474.96zm1.815 5.393l1.3.832 1.88-2.935.053.034c-.053.533.013 1.37.96 1.977 1.3.832 2.932.425 4.095-1.39 1.177-1.838.814-3.477-.46-4.293-.972-.622-1.752-.297-2.204-.025l-.076-.049.584-.911-1.277-.818-4.855 7.578zm4.363-4.007c.685-1.069 1.588-1.467 2.424-.932.865.554.839 1.575.181 2.601-.662 1.034-1.596 1.498-2.454.948-.829-.53-.836-1.547-.15-2.617zm8.274 5.918c-.538.84-1.403.872-1.978.504-.624-.4-.758-1.108-.31-1.807l2.12-3.309-1.299-.832-2.248 3.51c-.848 1.323-.575 2.556.509 3.25.825.529 1.684.467 2.331.01l.057.038-.627.98 1.26.806 3.53-5.511-1.299-.833-2.046 3.194zm7.157-2.511l-1.3-.832L73.4 30.41l1.3.832 4.707-7.349zm-1.857 9.332c.864.554 1.64.48 2.174.168l.043.028-.485.757 1.249.8 2.363-3.69c.933-1.456.026-2.655-1.026-3.328-1.159-.743-2.38-.796-3.31.025l1.102.95c.37-.295.944-.383 1.579.023.603.387.735.907.388 1.448l-.014.022c-.239.373-.641.14-1.68-.378-1.143-.57-2.37-.906-3.166.335-.694 1.084-.269 2.166.783 2.84zm.948-.739c-.541-.347-.77-.843-.465-1.32.32-.499.887-.429 1.521-.139.371.172 1.108.522 1.364.494l-.416.65c-.393.613-1.222.816-2.004.315zm3.34 3.328l1.298.832 2.076-3.24c.448-.7 1.293-.857 2.007-.4.218.14.466.355.554.462l.766-1.195a3.699 3.699 0 00-.444-.335c-.631-.404-1.389-.383-1.999.127l-.057-.037.588-.919-1.26-.806-3.53 5.511z" fill="#fff" fill-opacity=".8"/></svg>